<svg xmlns="http://www.w3.org/2000/svg" width="27.633" height="24.343" viewBox="0 0 27.633 24.343">
  <path id="home_icon" d="M13.176.374a1.128,1.128,0,0,1,1.582,0L27.446,12.856a1.128,1.128,0,1,1-1.582,1.608L24.305,12.93V23.453a.94.94,0,0,1-.94.94H4.568a.94.94,0,0,1-.94-.94V12.93L2.069,14.464A1.128,1.128,0,0,1,.487,12.856Zm.791,2.386,8.459,8.321V22.514h-3.76V15.934a.94.94,0,0,0-.94-.94H12.087a.94.94,0,0,0-.94.94v6.579H5.507V11.081Zm-.94,19.754h3.76V16.874h-3.76Z" transform="translate(-0.15 -0.05)" fill="#fff" fill-rule="evenodd"/>
</svg>
