<svg xmlns="http://www.w3.org/2000/svg" width="30" height="21" viewBox="0 0 30 21">
  <g id="hamburger_icon" transform="translate(-3 -7.5)">
    <path id="Path_582" data-name="Path 582" d="M3,8.992A1.492,1.492,0,0,1,4.492,7.5H16.507a1.493,1.493,0,1,1,0,2.985H4.492A1.492,1.492,0,0,1,3,8.992Z" fill="#70be43"/>
    <path id="Path_583" data-name="Path 583" d="M3,18a1.492,1.492,0,0,1,1.492-1.492H31.507a1.493,1.493,0,0,1,0,2.985H4.492A1.492,1.492,0,0,1,3,18Z" fill="#70be43"/>
    <path id="Path_584" data-name="Path 584" d="M4.492,25.515a1.492,1.492,0,1,0,0,2.985H22.507a1.493,1.493,0,0,0,0-2.985Z" fill="#70be43"/>
  </g>
</svg>
