<svg xmlns="http://www.w3.org/2000/svg" width="19.987" height="24.094" viewBox="0 0 19.987 24.094">
  <path id="user_icon" d="M12.018.875A6.618,6.618,0,0,0,10.182,13.85a9.121,9.121,0,0,0-5.457,2.424c-1.792,1.766-2.7,4.4-2.7,7.827a.867.867,0,0,0,1.734,0c0-3.14.827-5.256,2.183-6.592s3.387-2.032,6.076-2.032,4.718.693,6.077,2.032,2.183,3.453,2.183,6.592a.867.867,0,0,0,1.734,0c0-3.432-.908-6.061-2.7-7.827a9.121,9.121,0,0,0-5.457-2.424A6.618,6.618,0,0,0,12.018.875ZM7.136,7.492a4.883,4.883,0,1,1,4.883,4.883A4.883,4.883,0,0,1,7.136,7.492Z" transform="translate(-2.025 -0.875)" fill="#fff" fill-rule="evenodd"/>
</svg>
