<svg xmlns="http://www.w3.org/2000/svg" width="63.111" height="52" viewBox="0 0 63.111 52">
  <g id="subscribe_button_icon" transform="translate(-331.889 -658)">
    <rect id="Rectangle_1499" data-name="Rectangle 1499" width="52" height="52" rx="11" transform="translate(343 658)" fill="#70be43"/>
    <path id="Path_653" data-name="Path 653" d="M14.976,3.309a1.056,1.056,0,0,1,1.493,0l8.445,8.444a1.056,1.056,0,0,1,0,1.493l-8.445,8.445A1.056,1.056,0,1,1,14.976,20.2l6.643-6.642H-16.944A1.056,1.056,0,0,1-18,12.5a1.056,1.056,0,0,1,1.056-1.056H21.618L14.976,4.8A1.056,1.056,0,0,1,14.976,3.309Z" transform="translate(349.889 671)" fill="#fff" fill-rule="evenodd"/>
  </g>
</svg>
