<svg xmlns="http://www.w3.org/2000/svg" width="16" height="16" viewBox="0 0 16 16">
  <path id="dashboard_icon" d="M3.215,1H3.153a3.241,3.241,0,0,0-.738.051A1.846,1.846,0,0,0,1.051,2.415,3.241,3.241,0,0,0,1,3.153V6.231a3.241,3.241,0,0,0,.051.738A1.846,1.846,0,0,0,2.415,8.334a3.241,3.241,0,0,0,.738.051H6.231a3.241,3.241,0,0,0,.738-.051A1.846,1.846,0,0,0,8.334,6.969a3.241,3.241,0,0,0,.051-.738V3.153a3.241,3.241,0,0,0-.051-.738A1.846,1.846,0,0,0,6.969,1.051,3.241,3.241,0,0,0,6.231,1H3.215ZM2.7,2.248a2.9,2.9,0,0,1,.513-.017H6.169a2.9,2.9,0,0,1,.513.017.615.615,0,0,1,.455.455,2.9,2.9,0,0,1,.017.513V6.169a2.9,2.9,0,0,1-.017.513.615.615,0,0,1-.455.455,2.9,2.9,0,0,1-.513.017H3.215A2.9,2.9,0,0,1,2.7,7.137a.615.615,0,0,1-.455-.455,2.9,2.9,0,0,1-.017-.513V3.215A2.9,2.9,0,0,1,2.248,2.7.615.615,0,0,1,2.7,2.248ZM11.831,1h-.062a3.241,3.241,0,0,0-.738.051A1.846,1.846,0,0,0,9.666,2.415a3.241,3.241,0,0,0-.051.738V6.231a3.24,3.24,0,0,0,.051.738A1.846,1.846,0,0,0,11.03,8.334a3.241,3.241,0,0,0,.738.051h3.078a3.242,3.242,0,0,0,.738-.051,1.846,1.846,0,0,0,1.364-1.364A3.242,3.242,0,0,0,17,6.231V3.153a3.242,3.242,0,0,0-.051-.738,1.846,1.846,0,0,0-1.364-1.364A3.242,3.242,0,0,0,14.846,1H11.831Zm-.513,1.248a2.9,2.9,0,0,1,.513-.017h2.954a2.9,2.9,0,0,1,.513.017.615.615,0,0,1,.455.455,2.9,2.9,0,0,1,.017.513V6.169a2.9,2.9,0,0,1-.017.513.616.616,0,0,1-.455.455,2.9,2.9,0,0,1-.513.017H11.831a2.9,2.9,0,0,1-.513-.017.615.615,0,0,1-.455-.455,2.9,2.9,0,0,1-.017-.513V3.215a2.9,2.9,0,0,1,.017-.513A.615.615,0,0,1,11.318,2.248ZM3.153,9.615H6.231a3.24,3.24,0,0,1,.738.051A1.846,1.846,0,0,1,8.334,11.03a3.241,3.241,0,0,1,.051.738v3.078a3.242,3.242,0,0,1-.051.738,1.846,1.846,0,0,1-1.364,1.364A3.242,3.242,0,0,1,6.231,17H3.153a3.242,3.242,0,0,1-.738-.051,1.846,1.846,0,0,1-1.364-1.364A3.242,3.242,0,0,1,1,14.846V11.769a3.241,3.241,0,0,1,.051-.738A1.846,1.846,0,0,1,2.415,9.666,3.241,3.241,0,0,1,3.153,9.615Zm.062,1.231a2.9,2.9,0,0,0-.513.017.615.615,0,0,0-.455.455,2.9,2.9,0,0,0-.017.513v2.954a2.9,2.9,0,0,0,.017.513.615.615,0,0,0,.455.455,2.9,2.9,0,0,0,.513.017H6.169a2.9,2.9,0,0,0,.513-.017.616.616,0,0,0,.455-.455,2.9,2.9,0,0,0,.017-.513V11.831a2.9,2.9,0,0,0-.017-.513.615.615,0,0,0-.455-.455,2.9,2.9,0,0,0-.513-.017Zm8.615-1.231h-.062a3.241,3.241,0,0,0-.738.051A1.846,1.846,0,0,0,9.666,11.03a3.241,3.241,0,0,0-.051.738v3.078a3.241,3.241,0,0,0,.051.738,1.846,1.846,0,0,0,1.364,1.364,3.242,3.242,0,0,0,.738.051h3.078a3.242,3.242,0,0,0,.738-.051,1.847,1.847,0,0,0,1.364-1.364A3.242,3.242,0,0,0,17,14.846V11.769a3.242,3.242,0,0,0-.051-.738,1.846,1.846,0,0,0-1.364-1.364,3.241,3.241,0,0,0-.738-.051H11.831Zm-.513,1.248a2.9,2.9,0,0,1,.513-.017h2.954a2.9,2.9,0,0,1,.513.017.615.615,0,0,1,.455.455,2.9,2.9,0,0,1,.017.513v2.954a2.9,2.9,0,0,1-.017.513.616.616,0,0,1-.455.455,2.9,2.9,0,0,1-.513.017H11.831a2.9,2.9,0,0,1-.513-.017.615.615,0,0,1-.455-.455,2.9,2.9,0,0,1-.017-.513V11.831a2.9,2.9,0,0,1,.017-.513A.615.615,0,0,1,11.318,10.863Z" transform="translate(-1 -1)" fill="#70be43" fill-rule="evenodd"/>
</svg>
