<svg xmlns="http://www.w3.org/2000/svg" width="16.784" height="16" viewBox="0 0 16.784 16">
  <path id="manage_subscription_icon" d="M8.549,1.448l-.026.063L6.8,5.648a.376.376,0,0,1-.317.231l-4.467.358-.068.005-.416.033-.377.03a.376.376,0,0,0-.215.661l.287.246.317.271.052.044L5,10.444a.376.376,0,0,1,.121.373l-1.04,4.359-.016.066-.1.406-.088.368a.376.376,0,0,0,.562.409l.323-.2.356-.218.058-.036,3.824-2.336a.377.377,0,0,1,.392,0l3.824,2.336.058.036.356.218.323.2a.376.376,0,0,0,.562-.409l-.088-.368-.1-.406-.016-.066-1.04-4.359a.376.376,0,0,1,.121-.373l3.4-2.915.052-.044.317-.271.288-.246a.376.376,0,0,0-.215-.661l-.377-.03-.416-.033-.068-.005-4.467-.358a.376.376,0,0,1-.317-.231L9.881,1.511l-.026-.063-.16-.385L9.549.713a.376.376,0,0,0-.695,0l-.145.349Zm.653,1.7L7.96,6.13a1.631,1.631,0,0,1-1.375,1l-3.224.258,2.456,2.1a1.631,1.631,0,0,1,.525,1.617l-.75,3.146,2.76-1.686a1.631,1.631,0,0,1,1.7,0l2.76,1.686-.75-3.146a1.631,1.631,0,0,1,.525-1.617l2.456-2.1-3.224-.258a1.631,1.631,0,0,1-1.375-1Z" transform="translate(-0.81 -0.481)" fill="#70be43" fill-rule="evenodd"/>
</svg>
