<svg xmlns="http://www.w3.org/2000/svg" width="13.273" height="16" viewBox="0 0 13.273 16">
  <path id="profile_icon" d="M8.661.875a4.395,4.395,0,0,0-1.22,8.617A6.057,6.057,0,0,0,3.818,11.1a7.012,7.012,0,0,0-1.793,5.2.576.576,0,1,0,1.152,0,5.885,5.885,0,0,1,1.45-4.378,5.534,5.534,0,0,1,4.035-1.349A5.535,5.535,0,0,1,12.7,11.922a5.886,5.886,0,0,1,1.45,4.378.576.576,0,0,0,1.152,0,7.012,7.012,0,0,0-1.793-5.2,6.057,6.057,0,0,0-3.624-1.61A4.395,4.395,0,0,0,8.661.875ZM5.419,5.269A3.242,3.242,0,1,1,8.661,8.511,3.242,3.242,0,0,1,5.419,5.269Z" transform="translate(-2.025 -0.875)" fill="#70be43" fill-rule="evenodd"/>
</svg>
