<svg xmlns="http://www.w3.org/2000/svg" width="16.189" height="16.189" viewBox="0 0 16.189 16.189">
  <path id="setting_icon" d="M8.238.65a1,1,0,0,0-.98.782L6.977,2.674A6.29,6.29,0,0,0,5.7,3.2L4.624,2.524a1,1,0,0,0-1.246.139l-.716.716a1,1,0,0,0-.139,1.246L3.2,5.7a6.289,6.289,0,0,0-.529,1.275l-1.241.281a1,1,0,0,0-.782.98V9.252a1,1,0,0,0,.782.98l1.241.281A6.291,6.291,0,0,0,3.2,11.788l-.679,1.077a1,1,0,0,0,.139,1.246l.716.716a1,1,0,0,0,1.246.139L5.7,14.288a6.288,6.288,0,0,0,1.275.528l.281,1.241a1,1,0,0,0,.98.782H9.251a1,1,0,0,0,.98-.782l.281-1.241a6.29,6.29,0,0,0,1.276-.529l1.077.679a1,1,0,0,0,1.246-.139l.716-.716a1,1,0,0,0,.139-1.246l-.679-1.076a6.286,6.286,0,0,0,.529-1.276l1.241-.281a1,1,0,0,0,.782-.98V8.239a1,1,0,0,0-.782-.98l-1.241-.281A6.284,6.284,0,0,0,14.288,5.7l.679-1.077a1,1,0,0,0-.139-1.246l-.716-.716a1,1,0,0,0-1.246-.139L11.788,3.2a6.29,6.29,0,0,0-1.277-.529L10.23,1.433A1,1,0,0,0,9.251.65ZM5.7,4.387a5.289,5.289,0,0,1,2.121-.879l.42-1.853H9.251l.42,1.853a5.289,5.289,0,0,1,2.122.879L13.4,3.373l.716.716L13.1,5.7a5.288,5.288,0,0,1,.879,2.121l1.853.42V9.252l-1.853.42a5.288,5.288,0,0,1-.879,2.122L14.116,13.4l-.716.716L11.792,13.1a5.289,5.289,0,0,1-2.121.879l-.42,1.853H8.238l-.42-1.853A5.289,5.289,0,0,1,5.7,13.1L4.089,14.117,3.373,13.4l1.014-1.608a5.289,5.289,0,0,1-.879-2.121l-1.853-.42V8.239l1.853-.42A5.289,5.289,0,0,1,4.386,5.7L3.373,4.09l.716-.716Zm4.85,4.358a1.8,1.8,0,1,1-1.8-1.8A1.8,1.8,0,0,1,10.547,8.745Zm1.064,0A2.866,2.866,0,1,1,8.745,5.879,2.866,2.866,0,0,1,11.61,8.745Z" transform="translate(-0.65 -0.65)" fill="#70be43" fill-rule="evenodd"/>
</svg>
