<svg xmlns="http://www.w3.org/2000/svg" width="16.189" height="18.55" viewBox="0 0 16.189 18.55">
  <path id="workout_icon" d="M9.938.844a.675.675,0,0,0-.686,0L1.831,5.228a.675.675,0,0,0,0,1.161l7.42,4.385a.675.675,0,0,0,.686,0l7.42-4.385a.674.674,0,0,0,0-1.161ZM9.595,9.41,3.5,5.809l6.094-3.6,6.094,3.6Zm-8,.44a.675.675,0,0,1,.924-.238l7.077,4.182,7.077-4.182a.675.675,0,0,1,.686,1.161l-7.42,4.385a.675.675,0,0,1-.686,0l-7.42-4.385A.675.675,0,0,1,1.594,9.851Zm0,4.047a.675.675,0,0,1,.924-.238l7.077,4.182,7.077-4.182a.675.675,0,0,1,.686,1.162l-7.42,4.385a.675.675,0,0,1-.686,0l-7.42-4.385A.675.675,0,0,1,1.594,13.9Z" transform="translate(-1.5 -0.75)" fill="#70be43" fill-rule="evenodd"/>
</svg>
