<svg xmlns="http://www.w3.org/2000/svg" width="19.871" height="28" viewBox="0 0 19.871 28">
  <g id="lock_icon" transform="translate(-5.625 -1.125)" opacity="0.75">
    <path id="Path_649" data-name="Path 649" d="M21.883,14.673H9.238A1.806,1.806,0,0,0,7.431,16.48v9.032a1.806,1.806,0,0,0,1.806,1.806H21.883a1.806,1.806,0,0,0,1.806-1.806V16.48A1.806,1.806,0,0,0,21.883,14.673ZM9.238,12.867A3.613,3.613,0,0,0,5.625,16.48v9.032a3.613,3.613,0,0,0,3.613,3.613H21.883A3.613,3.613,0,0,0,25.5,25.512V16.48a3.613,3.613,0,0,0-3.613-3.613Zm0-5.419a6.323,6.323,0,0,1,12.645,0v5.419H20.077V7.448a4.516,4.516,0,1,0-9.032,0v5.419H9.238Z" transform="translate(0)" fill="#fff" fill-rule="evenodd"/>
  </g>
</svg>
