<svg xmlns="http://www.w3.org/2000/svg" width="21.794" height="24.972" viewBox="0 0 21.794 24.972">
  <path id="workout_icon" d="M12.859.876a.908.908,0,0,0-.924,0l-9.989,5.9a.908.908,0,0,0,0,1.564l9.989,5.9a.908.908,0,0,0,.924,0l9.989-5.9a.908.908,0,0,0,0-1.564ZM12.4,12.408l-8.2-4.848,8.2-4.848,8.2,4.848ZM1.626,13a.908.908,0,0,1,1.244-.32L12.4,18.311l9.527-5.629a.908.908,0,0,1,.924,1.564l-9.989,5.9a.908.908,0,0,1-.924,0l-9.989-5.9A.908.908,0,0,1,1.626,13Zm0,5.448a.908.908,0,0,1,1.244-.32l9.527,5.63,9.527-5.63a.908.908,0,0,1,.924,1.564l-9.989,5.9a.908.908,0,0,1-.924,0l-9.989-5.9A.908.908,0,0,1,1.626,18.45Z" transform="translate(-1.5 -0.75)" fill="#fff" fill-rule="evenodd"/>
</svg>
