<svg xmlns="http://www.w3.org/2000/svg" width="63.111" height="52" viewBox="0 0 63.111 52">
  <g id="button_icon" transform="translate(-319.889 -607)">
    <rect id="Rectangle_1512" data-name="Rectangle 1512" width="52" height="52" rx="11" transform="translate(331 607)" fill="#70be43"/>
    <path id="Path_687" data-name="Path 687" d="M14.976,3.309a1.056,1.056,0,0,1,1.493,0l8.445,8.444a1.056,1.056,0,0,1,0,1.493l-8.445,8.445A1.056,1.056,0,1,1,14.976,20.2l6.643-6.642H-16.944A1.056,1.056,0,0,1-18,12.5a1.056,1.056,0,0,1,1.056-1.056H21.618L14.976,4.8A1.056,1.056,0,0,1,14.976,3.309Z" transform="translate(337.889 621)" fill="#fff" fill-rule="evenodd"/>
  </g>
</svg>
