<svg xmlns="http://www.w3.org/2000/svg" xmlns:xlink="http://www.w3.org/1999/xlink" width="103" height="103" viewBox="0 0 103 103">
  <defs>
    <filter id="Ellipse_77" x="0" y="0" width="103" height="103" filterUnits="userSpaceOnUse">
      <feOffset dy="3" input="SourceAlpha"/>
      <feGaussianBlur stdDeviation="10" result="blur"/>
      <feFlood flood-opacity="0.49"/>
      <feComposite operator="in" in2="blur"/>
      <feComposite in="SourceGraphic"/>
    </filter>
  </defs>
  <g id="user_change_profile_image_icon" transform="translate(-194 -201)">
    <g transform="matrix(1, 0, 0, 1, 194, 201)" filter="url(#Ellipse_77)">
      <circle id="Ellipse_77-2" data-name="Ellipse 77" cx="21.5" cy="21.5" r="21.5" transform="translate(30 27)" fill="#70be43"/>
    </g>
    <path id="Path_772" data-name="Path 772" d="M3.013,3.507A1.507,1.507,0,0,0,1.507,5.013V15.56a1.507,1.507,0,0,0,1.507,1.507H19.587a1.507,1.507,0,0,0,1.507-1.507V5.013a1.507,1.507,0,0,0-1.507-1.507ZM0,5.013A3.013,3.013,0,0,1,3.013,2H19.587A3.013,3.013,0,0,1,22.6,5.013V15.56a3.013,3.013,0,0,1-3.013,3.013H3.013A3.013,3.013,0,0,1,0,15.56Zm3.013.377a.377.377,0,0,1,.377-.377H7.157a.377.377,0,0,1,.377.377V7.657a.377.377,0,0,1-.377.377H3.39a.377.377,0,0,1-.377-.377Zm15.219,5.024a3.919,3.919,0,1,1-3.919-3.919A3.919,3.919,0,0,1,18.232,10.414Zm1.507,0a5.426,5.426,0,1,1-5.426-5.426A5.426,5.426,0,0,1,19.739,10.414Z" transform="translate(234 239)" fill="#fff" fill-rule="evenodd"/>
  </g>
</svg>
