<svg xmlns="http://www.w3.org/2000/svg" width="23.333" height="14" viewBox="0 0 23.333 14">
  <path id="eye_icon" d="M11.667,15.444A11.908,11.908,0,0,1,1.705,10a11.835,11.835,0,0,1,19.923,0A11.908,11.908,0,0,1,11.667,15.444ZM11.667,3A13.519,13.519,0,0,0,.118,9.588a.778.778,0,0,0,0,.824A13.519,13.519,0,0,0,11.667,17a13.519,13.519,0,0,0,11.548-6.588.778.778,0,0,0,0-.824A13.519,13.519,0,0,0,11.667,3Zm0,10.111A3.111,3.111,0,1,0,8.556,10,3.111,3.111,0,0,0,11.667,13.111Z" transform="translate(0 -3)" fill="#fff" fill-rule="evenodd"/>
</svg>
